<svg width="32" height="32" viewBox="0 0 32 32" fill="none" xmlns="http://www.w3.org/2000/svg">
<mask id="mask0_314_1621" style="mask-type:luminance" maskUnits="userSpaceOnUse" x="1" y="5" width="30" height="22">
<path d="M30.3251 5H1.51562V27H30.3251V5Z" fill="white"/>
</mask>
<g mask="url(#mask0_314_1621)">
<path d="M25.9041 6.95848C24.0679 6.12792 22.0988 5.516 20.04 5.16553C20.0025 5.15877 19.9651 5.17567 19.9458 5.20948C19.6925 5.65348 19.412 6.23272 19.2156 6.688C17.0012 6.3612 14.7982 6.3612 12.6293 6.688C12.4328 6.2226 12.1421 5.65348 11.8877 5.20948C11.8684 5.1768 11.831 5.1599 11.7935 5.16553C9.73583 5.51488 7.76676 6.1268 5.92941 6.95848C5.9135 6.96524 5.89987 6.97652 5.89082 6.99116C2.15591 12.4917 1.13276 17.8571 1.63468 23.1559C1.63695 23.1818 1.65171 23.2066 1.67215 23.2224C4.13634 25.0063 6.52333 26.0893 8.86599 26.8072C8.90348 26.8184 8.94321 26.8049 8.96707 26.7745C9.52122 26.0285 10.0152 25.2419 10.4387 24.4147C10.4637 24.3662 10.4399 24.3088 10.3888 24.2896C9.60526 23.9966 8.85917 23.6394 8.14149 23.2337C8.08472 23.201 8.08018 23.121 8.1324 23.0826C8.28343 22.9711 8.4345 22.855 8.57871 22.7378C8.6048 22.7164 8.64115 22.7119 8.67183 22.7254C13.3867 24.8474 18.4911 24.8474 23.1503 22.7254C23.181 22.7108 23.2174 22.7153 23.2446 22.7367C23.3888 22.8539 23.5399 22.9711 23.692 23.0826C23.7442 23.121 23.7408 23.201 23.6841 23.2337C22.9664 23.6472 22.2203 23.9966 21.4356 24.2885C21.3845 24.3076 21.3618 24.3662 21.3868 24.4147C21.8194 25.2407 22.3134 26.0273 22.8574 26.7734C22.8801 26.8049 22.9209 26.8184 22.9584 26.8072C25.3125 26.0893 27.6994 25.0063 30.1636 23.2224C30.1852 23.2066 30.1988 23.183 30.2011 23.157C30.8018 17.031 29.195 11.7096 25.9416 6.99228C25.9336 6.97652 25.92 6.96524 25.9041 6.95848ZM11.1428 19.9295C9.72334 19.9295 8.55371 18.6448 8.55371 17.0671C8.55371 15.4894 9.70065 14.2047 11.1428 14.2047C12.5963 14.2047 13.7546 15.5006 13.7319 17.0671C13.7319 18.6448 12.585 19.9295 11.1428 19.9295ZM20.7157 19.9295C19.2962 19.9295 18.1266 18.6448 18.1266 17.0671C18.1266 15.4894 19.2735 14.2047 20.7157 14.2047C22.1692 14.2047 23.3275 15.5006 23.3048 17.0671C23.3048 18.6448 22.1692 19.9295 20.7157 19.9295Z" fill="white"/>
</g>
</svg>
