<svg width="48" height="48" viewBox="0 0 48 48" fill="none" xmlns="http://www.w3.org/2000/svg">
<path d="M40.9999 17.625C40.9999 16.4485 40.0485 15.4945 38.875 15.4945L35.2476 15.4945C36.1863 14.5662 36.7872 13.3492 36.7872 11.8503C36.7872 10.0048 35.73 8.00001 32.7624 8C28.8578 8 25.5959 12.1683 24.0632 14.5049C22.5295 12.1688 19.1678 8.00053 15.2636 8.00053C12.296 8.00053 11.2388 10.0053 11.2388 11.8509C11.2388 13.3491 11.8562 14.5667 12.814 15.4951L9.125 15.4951C7.95147 15.4951 7 16.449 7 17.6256L7 24.0027L9.14359 24.0027L9.14359 37.8695C9.14359 39.0461 10.095 40 11.2686 40L36.758 40C37.9315 40 38.883 39.0461 38.883 37.8695L38.883 24.0021L41 24.0021L41 17.625L40.9999 17.625ZM32.7624 10.131C34.0762 10.131 34.6622 10.6845 34.6622 11.8509C34.6622 14.2173 32.0277 15.494 29.55 15.494L25.9529 15.494C27.4627 13.2458 30.12 10.131 32.7624 10.131ZM15.2636 10.1311C17.9065 10.1311 20.6642 13.2458 22.174 15.4935L18.5759 15.4935C16.0981 15.4935 13.3638 14.1838 13.3638 11.8173C13.3638 10.6514 13.9497 10.1311 15.2636 10.1311ZM38.875 21.8716L25.0625 21.8716L25.0625 17.625L38.875 17.625L38.875 21.8716ZM9.12497 17.625L22.9375 17.625L22.9375 21.8716L9.12496 21.8716L9.12497 17.625ZM11.2686 24.0021L22.9375 24.0021L22.9375 37.869L11.2686 37.869L11.2686 24.0021ZM36.7585 37.869L25.0625 37.869L25.0625 24.0021L36.7585 24.0021L36.7585 37.869Z" fill="#E066FF"/>
</svg>
