<svg width="223" height="45" viewBox="0 0 223 45" fill="none" xmlns="http://www.w3.org/2000/svg">
<g filter="url(#filter0_d_1433_5160)">
<path d="M20.6484 16.1973C21.5508 16.1973 22.2982 16.4821 22.8906 17.0518C23.4876 17.6214 23.7861 18.3369 23.7861 19.1982C23.7861 20.0732 23.4876 20.7956 22.8906 21.3652C22.2982 21.9349 21.5508 22.2197 20.6484 22.2197H18.5361V26H16.8955V16.1973H20.6484ZM20.6484 20.6543C21.0723 20.6543 21.4255 20.5153 21.708 20.2373C21.9906 19.9593 22.1318 19.613 22.1318 19.1982C22.1318 18.7926 21.9906 18.4531 21.708 18.1797C21.4255 17.9062 21.0723 17.7695 20.6484 17.7695H18.5361V20.6543H20.6484ZM25.125 20.0391C25.804 19.3555 26.6448 19.0137 27.6475 19.0137C28.6501 19.0137 29.4932 19.3555 30.1768 20.0391C30.8603 20.7227 31.2021 21.5703 31.2021 22.582C31.2021 23.5938 30.8603 24.4391 30.1768 25.1182C29.4932 25.7972 28.6501 26.1367 27.6475 26.1367C26.6448 26.1367 25.804 25.7972 25.125 25.1182C24.446 24.4391 24.1064 23.5938 24.1064 22.582C24.1064 21.5703 24.446 20.7227 25.125 20.0391ZM29.083 21.1055C28.6956 20.709 28.2171 20.5107 27.6475 20.5107C27.0778 20.5107 26.6016 20.709 26.2187 21.1055C25.8359 21.502 25.6445 21.9941 25.6445 22.582C25.6445 23.1654 25.8359 23.6553 26.2187 24.0518C26.6061 24.4437 27.0823 24.6396 27.6475 24.6396C28.2171 24.6396 28.6956 24.4414 29.083 24.0449C29.4704 23.6484 29.6641 23.1608 29.6641 22.582C29.6641 21.9941 29.4704 21.502 29.083 21.1055ZM33.9697 26L31.4951 19.1572H33.1562L34.5986 23.5938L36.1982 19.1572H37.456L39.0693 23.5938L40.5049 19.1572H42.1728L39.6982 26H38.4473L36.8271 21.5635L35.2002 26H33.9697ZM49.2949 22.2744C49.2949 22.5387 49.2767 22.7643 49.2402 22.9512H44.0312C44.1178 23.5072 44.3388 23.9424 44.6943 24.2568C45.0543 24.5713 45.5101 24.7285 46.0615 24.7285C46.4489 24.7285 46.8043 24.651 47.1279 24.4961C47.4515 24.3366 47.693 24.1247 47.8525 23.8604L49.0967 24.6533C48.8414 25.1182 48.4427 25.4827 47.9004 25.7471C47.3626 26.0068 46.7405 26.1367 46.0342 26.1367C45.3825 26.1367 44.7855 25.9818 44.2431 25.6719C43.7008 25.3574 43.2702 24.9245 42.9511 24.373C42.6367 23.8216 42.4795 23.2109 42.4795 22.541C42.4795 21.8893 42.6344 21.2946 42.9443 20.7568C43.2588 20.2145 43.6849 19.7884 44.2226 19.4785C44.765 19.1686 45.3597 19.0137 46.0068 19.0137C46.6129 19.0137 47.1666 19.1572 47.6679 19.4443C48.1738 19.7314 48.5703 20.1257 48.8574 20.627C49.1491 21.1237 49.2949 21.6729 49.2949 22.2744ZM44.0859 21.7549H47.6543C47.6133 21.3265 47.431 20.9779 47.1074 20.709C46.7838 20.4355 46.3873 20.2988 45.9179 20.2988C45.4577 20.2988 45.068 20.4287 44.749 20.6885C44.43 20.9437 44.209 21.2992 44.0859 21.7549ZM53.8535 19.0137C54.1679 19.0137 54.43 19.0501 54.6396 19.123L54.5439 20.5928C54.2796 20.5016 54.0084 20.4561 53.7304 20.4561C53.4479 20.4561 53.1494 20.5632 52.8349 20.7773C52.5205 20.987 52.2767 21.2718 52.1035 21.6318V26H50.5517V19.1572H52.1035V20.0938C52.2721 19.7747 52.525 19.515 52.8623 19.3145C53.1995 19.1139 53.5299 19.0137 53.8535 19.0137ZM61.6523 22.2744C61.6523 22.5387 61.6341 22.7643 61.5976 22.9512H56.3886C56.4752 23.5072 56.6963 23.9424 57.0517 24.2568C57.4117 24.5713 57.8675 24.7285 58.4189 24.7285C58.8063 24.7285 59.1617 24.651 59.4853 24.4961C59.8089 24.3366 60.0504 24.1247 60.2099 23.8604L61.4541 24.6533C61.1989 25.1182 60.8001 25.4827 60.2578 25.7471C59.72 26.0068 59.0979 26.1367 58.3916 26.1367C57.7399 26.1367 57.1429 25.9818 56.6005 25.6719C56.0582 25.3574 55.6276 24.9245 55.3086 24.373C54.9941 23.8216 54.8369 23.2109 54.8369 22.541C54.8369 21.8893 54.9918 21.2946 55.3017 20.7568C55.6162 20.2145 56.0423 19.7884 56.58 19.4785C57.1224 19.1686 57.7171 19.0137 58.3642 19.0137C58.9703 19.0137 59.5241 19.1572 60.0254 19.4443C60.5312 19.7314 60.9277 20.1257 61.2148 20.627C61.5065 21.1237 61.6523 21.6729 61.6523 22.2744ZM56.4433 21.7549H60.0117C59.9707 21.3265 59.7884 20.9779 59.4648 20.709C59.1412 20.4355 58.7448 20.2988 58.2754 20.2988C57.8151 20.2988 57.4254 20.4287 57.1064 20.6885C56.7874 20.9437 56.5664 21.2992 56.4433 21.7549ZM67.9062 16.1973H69.4648V26H67.9062V25.0771C67.7239 25.387 67.4277 25.6423 67.0175 25.8428C66.6119 26.0387 66.1813 26.1367 65.7255 26.1367C64.805 26.1367 64.0257 25.7926 63.3876 25.1045C62.7542 24.4163 62.4375 23.571 62.4375 22.5684C62.4375 21.5749 62.7542 20.734 63.3876 20.0459C64.0257 19.3577 64.805 19.0137 65.7255 19.0137C66.1767 19.0137 66.6074 19.1139 67.0175 19.3145C67.4277 19.515 67.7239 19.7702 67.9062 20.0801V16.1973ZM66.0468 24.6533C66.4296 24.6533 66.7919 24.5576 67.1337 24.3662C67.4801 24.1748 67.7376 23.931 67.9062 23.6348V21.5361C67.7376 21.2308 67.4824 20.9824 67.1406 20.791C66.7988 20.5951 66.4342 20.4971 66.0468 20.4971C65.4589 20.4971 64.9668 20.6953 64.5703 21.0918C64.1738 21.4837 63.9755 21.9759 63.9755 22.5684C63.9755 23.1608 64.1738 23.6576 64.5703 24.0586C64.9668 24.4551 65.4589 24.6533 66.0468 24.6533ZM77.8437 19.0137C78.7643 19.0137 79.5413 19.3577 80.1747 20.0459C80.8128 20.734 81.1318 21.5749 81.1318 22.5684C81.1318 23.571 80.8128 24.4163 80.1747 25.1045C79.5413 25.7926 78.7643 26.1367 77.8437 26.1367C77.388 26.1367 76.955 26.0387 76.5449 25.8428C76.1347 25.6423 75.8385 25.387 75.6562 25.0771V26H74.1044V16.1973H75.6562V20.0801C75.8385 19.7702 76.1347 19.515 76.5449 19.3145C76.955 19.1139 77.388 19.0137 77.8437 19.0137ZM77.5224 24.6533C78.1103 24.6533 78.6025 24.4551 78.999 24.0586C79.3954 23.6576 79.5937 23.1608 79.5937 22.5684C79.5937 21.9759 79.3954 21.4837 78.999 21.0918C78.6025 20.6953 78.1103 20.4971 77.5224 20.4971C77.135 20.4971 76.7682 20.5951 76.4218 20.791C76.08 20.9824 75.8248 21.2308 75.6562 21.5361V23.6348C75.8248 23.931 76.0823 24.1748 76.4286 24.3662C76.775 24.5576 77.1396 24.6533 77.5224 24.6533ZM86.6542 19.1572H88.3359L84.4667 28.4062H82.7919L84.0224 25.6377L81.3085 19.1572H82.9833L84.8222 23.8193L86.6542 19.1572Z" fill="#777777"/>
</g>
<path fill-rule="evenodd" clip-rule="evenodd" d="M110.212 14.0634L115.519 11L120.826 14.0634L118.875 15.1951L115.519 13.2634L112.163 15.1951L110.212 14.0634ZM120.826 17.9268L118.875 16.7951L115.519 18.7268L112.163 16.7951L110.212 17.9268V20.1902L113.568 22.122V25.9854L115.519 27.1171L117.47 25.9854V22.122L120.826 20.1902V17.9268ZM120.826 24.0537V21.7902L118.875 22.922V25.1853L120.826 24.0537ZM122.212 24.8537L118.855 26.7854V29.0488L124.163 25.9854V19.8585L122.212 20.9902V24.8537ZM120.26 15.9951L122.212 17.1268V19.3902L124.163 18.2585V15.9951L122.212 14.8634L120.26 15.9951ZM113.568 29.8683L115.519 31L117.47 29.8683V27.6049L115.519 28.7366L113.568 27.6049V29.8683ZM110.212 24.0537L112.163 25.1853V22.922L110.212 21.7902V24.0537ZM113.568 15.9951L115.519 17.1268L117.47 15.9951L115.519 14.8634L113.568 15.9951ZM108.826 17.1268L110.777 15.9951L108.826 14.8634L106.875 15.9951V18.2585L108.826 19.3902V17.1268ZM108.826 20.9902L106.875 19.8585V25.9854L112.182 29.0488V26.7854L108.826 24.8537V20.9902ZM139.546 23.5527V23.5209C139.546 22.0262 138.751 21.2789 137.463 20.786C138.258 20.3408 138.926 19.6411 138.926 18.3849V18.3531C138.926 16.6041 137.526 15.4751 135.253 15.4751H130.085V26.6057H135.38C137.892 26.6057 139.546 25.588 139.546 23.5527ZM136.493 18.7984C136.493 19.6252 135.809 19.975 134.728 19.975H132.47V17.6217H134.887C135.92 17.6217 136.493 18.0351 136.493 18.7666V18.7984ZM137.113 23.2506C137.113 24.0774 136.461 24.459 135.38 24.459H132.47V22.0103H135.3C136.556 22.0103 137.113 22.4715 137.113 23.2188V23.2506ZM151.609 15.4751V26.6057H149.526L144.136 19.5298V26.6057H141.719V15.4751H143.977L149.192 22.3284V15.4751H151.609ZM163.901 23.5527V23.5209C163.901 22.0262 163.106 21.2789 161.818 20.786C162.613 20.3408 163.281 19.6411 163.281 18.3849V18.3531C163.281 16.6041 161.882 15.4751 159.608 15.4751H154.44V26.6057H159.735C162.248 26.6057 163.901 25.588 163.901 23.5527ZM160.848 18.7984C160.848 19.6252 160.165 19.975 159.083 19.975H156.826V17.6217H159.242C160.276 17.6217 160.848 18.0351 160.848 18.7666V18.7984ZM161.469 23.2506C161.469 24.0774 160.817 24.459 159.735 24.459H156.826V22.0103H159.656C160.912 22.0103 161.469 22.4715 161.469 23.2188V23.2506ZM177.402 23.3675L178.659 24.6396C177.498 25.848 176.226 26.6113 174.143 26.6113C170.899 26.6113 168.482 24.083 168.482 20.8711C168.482 17.691 170.851 15.0991 174.222 15.0991C176.273 15.0991 177.514 15.8146 178.579 16.8323L177.323 18.2793C176.432 17.4524 175.478 16.8959 174.206 16.8959C172.076 16.8959 170.533 18.645 170.533 20.8393C170.533 23.0336 172.076 24.8146 174.206 24.8146C175.574 24.8146 176.448 24.258 177.402 23.3675ZM188.141 21.7294V26.4201H190.096V15.2896H188.141V19.9167H182.83V15.2896H180.874V26.4201H182.83V21.7294H188.141ZM197.057 15.2114H198.87L203.768 26.4215H201.701L200.572 23.7342H195.308L194.164 26.4215H192.16L197.057 15.2114ZM196.024 22.0011H199.856L197.932 17.5488L196.024 22.0011ZM205.947 15.2896V26.4201H207.902V15.2896H205.947ZM212.853 15.2896L218.816 22.9856V15.2896H220.74V26.4201H219.102L212.965 18.5015V26.4201H211.041V15.2896H212.853Z" fill="#F3BA2F"/>
<defs>
<filter id="filter0_d_1433_5160" x="0.895508" y="0.195312" width="103.44" height="44.2109" filterUnits="userSpaceOnUse" color-interpolation-filters="sRGB">
<feFlood flood-opacity="0" result="BackgroundImageFix"/>
<feColorMatrix in="SourceAlpha" type="matrix" values="0 0 0 0 0 0 0 0 0 0 0 0 0 0 0 0 0 0 127 0" result="hardAlpha"/>
<feOffset/>
<feGaussianBlur stdDeviation="8"/>
<feComposite in2="hardAlpha" operator="out"/>
<feColorMatrix type="matrix" values="0 0 0 0 0 0 0 0 0 0 0 0 0 0 0 0 0 0 0.2 0"/>
<feBlend mode="normal" in2="BackgroundImageFix" result="effect1_dropShadow_1433_5160"/>
<feBlend mode="normal" in="SourceGraphic" in2="effect1_dropShadow_1433_5160" result="shape"/>
</filter>
</defs>
</svg>
