<svg width="32" height="32" viewBox="0 0 32 32" fill="none" xmlns="http://www.w3.org/2000/svg">
<path d="M26.9396 10.4054C26.9559 10.641 26.9559 10.8766 26.9559 11.1143C26.9559 18.3584 21.4518 26.7131 11.3873 26.7131V26.7088C8.41418 26.7131 5.50285 25.8598 3 24.251C3.43231 24.3031 3.86679 24.3292 4.30235 24.3302C6.7662 24.3324 9.15962 23.5041 11.098 21.9789C8.75656 21.9344 6.70335 20.4048 5.98609 18.1717C6.80629 18.3302 7.6514 18.2976 8.45643 18.0773C5.90374 17.5605 4.06723 15.3134 4.06723 12.7036C4.06723 12.6797 4.06723 12.6569 4.06723 12.6341C4.82784 13.0586 5.67946 13.2942 6.55058 13.3202C4.14633 11.7103 3.40522 8.50565 4.85709 6.00011C7.63515 9.42514 11.734 11.5073 16.134 11.7277C15.693 9.82355 16.2955 7.82824 17.717 6.48971C19.9208 4.41407 23.3869 4.52046 25.4585 6.72745C26.6839 6.48537 27.8584 6.03485 28.9332 5.39652C28.5248 6.66558 27.6699 7.74356 26.5279 8.42857C27.6125 8.30047 28.6721 8.00953 29.67 7.56553C28.9354 8.66848 28.0101 9.62923 26.9396 10.4054Z" fill="white"/>
</svg>
