<svg width="48" height="48" viewBox="0 0 48 48" fill="none" xmlns="http://www.w3.org/2000/svg">
<path fill-rule="evenodd" clip-rule="evenodd" d="M23.998 33.3C31.1225 33.3 36.898 27.5245 36.898 20.4C36.898 13.2755 31.1225 7.5 23.998 7.5C16.8735 7.5 11.098 13.2755 11.098 20.4C11.098 27.5245 16.8735 33.3 23.998 33.3ZM23.998 35.8C26.4216 35.8 28.7145 35.2401 30.7543 34.2427V40.114C30.7543 40.6377 30.2312 41.0001 29.7409 40.8162L24.7943 38.9613C24.2849 38.7702 23.7236 38.7702 23.2142 38.9613L18.2676 40.8162C17.7773 41.0001 17.2543 40.6377 17.2543 40.114V34.2488C19.2909 35.2424 21.5794 35.8 23.998 35.8ZM39.398 20.4C39.398 25.431 36.9855 29.8986 33.2543 32.7089V40.114C33.2543 42.3832 30.9878 43.9538 28.8631 43.1571L24.0043 41.335L19.1454 43.1571C17.0207 43.9538 14.7543 42.3832 14.7543 40.114V32.7183C11.0159 29.9085 8.59802 25.4366 8.59802 20.4C8.59802 11.8948 15.4928 5 23.998 5C32.5032 5 39.398 11.8948 39.398 20.4ZM22.57 25.2825L30.4806 17.347L28.71 15.582L22.57 21.7414L19.5014 18.6631L17.7308 20.4281L22.57 25.2825Z" fill="#E066FF"/>
</svg>
