<svg width="20" height="20" viewBox="0 0 20 20" fill="none" xmlns="http://www.w3.org/2000/svg">
<path d="M6.84285 8.70322L9.99886 5.54765L13.1565 8.70488L14.9929 6.86869L9.99886 1.875L5.00647 6.86702L6.84285 8.70322Z" fill="black"/>
<path d="M5.54778 9.99632L3.71143 8.16016L1.87498 9.99641L3.71134 11.8326L5.54778 9.99632Z" fill="black"/>
<path d="M6.84555 11.2984L10.0016 14.454L13.1591 11.2969L14.9965 13.132L14.9956 13.1331L10.0016 18.1266L5.00904 13.1347L5.00647 13.1322L6.84555 11.2984Z" fill="black"/>
<path d="M16.2886 11.8363L18.125 10L16.2886 8.16383L14.4522 10.0001L16.2886 11.8363Z" fill="black"/>
<path d="M11.8571 9.99609H11.8578L9.99437 8.13281L8.61724 9.5098H8.61711L8.45898 9.66805L8.13257 9.99442L8.13 9.99699L8.13257 9.99969L9.99437 11.8613L11.8578 9.99802L11.8587 9.99699L11.8571 9.99609Z" fill="black"/>
</svg>
