<svg width="48" height="48" viewBox="0 0 48 48" fill="none" xmlns="http://www.w3.org/2000/svg">
<path fill-rule="evenodd" clip-rule="evenodd" d="M15.5339 8.75C15.2782 8.75 15.0374 8.87041 14.884 9.07499L12.0548 12.8477H36.7484L33.9192 9.07499C33.7658 8.87041 33.525 8.75 33.2693 8.75H15.5339ZM10.8032 37.2V15.3477H38V37.2C38 37.7437 37.784 38.2652 37.3996 38.6496C37.0152 39.0341 36.4939 39.25 35.9504 39.25H12.8529C12.3093 39.25 11.788 39.0341 11.4036 38.6496C11.0192 38.2652 10.8032 37.7437 10.8032 37.2ZM12.8839 7.57509C13.5095 6.74093 14.4913 6.25 15.5339 6.25H33.2693C34.3119 6.25 35.2937 6.74093 35.9193 7.57509L39.6314 12.5251C40.1952 13.277 40.5 14.1914 40.5 15.1311V37.2C40.5 38.4067 40.0207 39.564 39.1675 40.4173C38.3143 41.2706 37.157 41.75 35.9504 41.75H12.8529C11.6462 41.75 10.4889 41.2706 9.63573 40.4173C8.78253 39.564 8.30322 38.4067 8.30322 37.2V15.1311C8.30322 14.1914 8.608 13.277 9.1718 12.5251L12.8839 7.57509ZM19.0532 20.6953V19.4453H16.5532V20.6953C16.5532 22.7772 17.3802 24.7739 18.8522 26.2461C20.3242 27.7182 22.3207 28.5453 24.4025 28.5453C26.4843 28.5453 28.4808 27.7182 29.9528 26.2461C31.4248 24.7739 32.2518 22.7772 32.2518 20.6953V19.4453H29.7518V20.6953C29.7518 22.1143 29.1882 23.4751 28.185 24.4784C27.1818 25.4817 25.8212 26.0453 24.4025 26.0453C22.9838 26.0453 21.6232 25.4817 20.62 24.4784C19.6168 23.4751 19.0532 22.1143 19.0532 20.6953Z" fill="#E066FF"/>
</svg>
