<svg width="32" height="32" viewBox="0 0 32 32" fill="none" xmlns="http://www.w3.org/2000/svg">
<path fill-rule="evenodd" clip-rule="evenodd" d="M30.0753 16.4453C30.0656 15.9284 29.5917 15.478 29.0725 15.4927C28.5598 15.5073 28.1522 15.9414 28.1619 16.4567C28.1732 17.0029 28.6051 17.4126 29.1534 17.3931C29.6774 17.3752 30.085 16.9558 30.0753 16.4453ZM14.4205 25.0808C14.9381 25.0791 15.4104 24.5979 15.391 24.094C15.3699 23.6095 14.9122 23.1836 14.4076 23.1836C13.8771 23.1836 13.4614 23.5835 13.4501 24.1005C13.4388 24.6158 13.903 25.084 14.4205 25.0808ZM1.64633 15.1724C1.75955 16.7298 2.32241 17.9181 3.76997 18.6448C6.30928 19.9161 8.81139 21.2605 11.3184 22.5886C11.637 22.7577 11.8052 22.813 12.0607 22.4472C13.1153 20.937 15.1791 20.7777 16.4778 22.1058C16.7835 22.4196 16.9679 22.3968 17.3076 22.2131C20.1526 20.6785 23.0056 19.1553 25.8636 17.645C26.2 17.4662 26.365 17.2988 26.2954 16.8745C26.0625 15.4634 26.9278 14.106 28.2703 13.7028C29.624 13.2964 31.146 13.9483 31.7218 15.1822C32.3332 16.4892 31.9094 18.0661 30.7206 18.8594C29.7259 19.5243 28.6892 19.5682 27.6524 18.9716C27.3758 18.8123 27.1737 18.8041 26.8987 18.9553C23.8483 20.6167 20.7947 22.27 17.7378 23.9184C17.458 24.0696 17.3043 24.2435 17.2445 24.5833C17.0116 25.9293 15.9587 26.8982 14.689 26.9909C13.3013 27.0933 12.1044 26.326 11.6774 24.9978C11.561 24.637 11.3717 24.4419 11.0547 24.2793C8.24692 22.839 5.44236 21.3889 2.6378 19.9339C0.462401 18.8074 -0.639044 15.5366 0.388001 13.3046C0.690454 12.6478 1.17082 12.1796 1.81131 11.8594C5.093 10.2191 8.36984 8.57554 11.6515 6.93851C13.4161 6.05741 15.1952 5.20557 16.9517 4.31309C17.8187 3.87254 18.6338 3.91481 19.4943 4.32772C23.0299 6.02977 26.572 7.70907 30.1141 9.39324C30.4246 9.54118 30.7691 9.67123 30.7691 10.0711C30.7691 10.4597 30.4343 10.6222 30.1319 10.7799C26.8939 12.4641 23.6558 14.1483 20.4162 15.8341C18.65 16.7526 16.866 17.645 15.1176 18.6009C14.3154 19.0398 13.6215 19.0724 12.7902 18.6221C9.67023 16.9281 6.51146 15.3008 3.37048 13.6411C2.5262 13.1956 1.93261 13.4492 1.72559 14.3872C1.66736 14.6538 1.66898 14.9351 1.64633 15.1724Z" fill="white"/>
</svg>
