<svg width="32" height="32" viewBox="0 0 32 32" fill="none" xmlns="http://www.w3.org/2000/svg">
<path d="M17.3577 16.2354C17.3577 20.7835 13.6959 24.4705 9.17901 24.4705C4.66213 24.4705 1 20.7835 1 16.2354C1 11.6872 4.66185 8 9.17901 8C13.6962 8 17.3577 11.6872 17.3577 16.2354Z" fill="white"/>
<path d="M26.3274 16.2334C26.3274 20.5145 24.4965 23.9864 22.2379 23.9864C19.9794 23.9864 18.1484 20.5145 18.1484 16.2334C18.1484 11.9524 19.9791 8.48047 22.2377 8.48047C24.4962 8.48047 26.3272 11.9512 26.3272 16.2334" fill="white"/>
<path d="M30.0013 16.2345C30.0013 20.0693 29.3575 23.1799 28.563 23.1799C27.7686 23.1799 27.125 20.0701 27.125 16.2345C27.125 12.3989 27.7688 9.28906 28.563 9.28906C29.3572 9.28906 30.0013 12.3986 30.0013 16.2345Z" fill="white"/>
</svg>
