<svg width="48" height="48" viewBox="0 0 48 48" fill="none" xmlns="http://www.w3.org/2000/svg">
<path fill-rule="evenodd" clip-rule="evenodd" d="M21.7562 10.2C28.9063 10.2 34.8063 16.3198 34.8063 24.0002C34.8063 31.6805 28.9063 37.8003 21.7562 37.8003C14.6061 37.8003 8.70607 31.6805 8.70607 24.0002C8.70607 16.3198 14.6061 10.2 21.7562 10.2ZM37.2063 24.0002C37.2063 15.1118 30.3463 7.80005 21.7562 7.80005C13.1661 7.80004 6.30607 15.1118 6.30607 24.0002C6.30607 32.8885 13.1661 40.2003 21.7562 40.2003C30.3463 40.2003 37.2063 32.8885 37.2063 24.0002Z" fill="#E066FF"/>
<path d="M21.3554 16.8557L26.2136 16.8557C26.3237 16.8557 26.4131 16.9413 26.4131 17.0468L26.4131 21.4907C26.4131 21.6817 26.251 21.837 26.0514 21.837L21.5674 21.837C21.3679 21.837 21.2057 21.9922 21.2057 22.1833L21.2057 26.6749C21.2057 26.7665 21.1683 26.8541 21.0997 26.9197L16.8444 30.9895C16.7758 31.0552 16.5887 31.1467 16.3933 31.1467C16.2477 31.1467 15.9983 31.0313 15.9983 30.7607L15.9983 21.9803C15.9983 21.8887 16.0357 21.8012 16.1043 21.7355L21.0997 16.9572C21.1683 16.8915 21.2598 16.8557 21.3554 16.8557Z" fill="#E066FF"/>
<path d="M25.293 24.4438C24.8585 25.0349 24.5051 25.4627 24.2328 25.7214C23.9605 25.9821 23.5156 26.3205 22.8961 26.7364C22.8483 26.7682 22.8379 26.8299 22.8712 26.8757C22.8774 26.8857 22.8857 26.8936 22.8961 26.8996C23.5135 27.3155 23.9605 27.6538 24.2328 27.9146C24.5051 28.1753 24.8585 28.6011 25.293 29.1922C25.3262 29.238 25.3907 29.2479 25.4385 29.2161C25.4489 29.2101 25.4572 29.2022 25.4634 29.1922C25.8979 28.6011 26.2513 28.1753 26.5236 27.9146C26.796 27.6538 27.2408 27.3155 27.8603 26.8996C27.9081 26.8678 27.9185 26.8061 27.8853 26.7603C27.879 26.7503 27.8707 26.7424 27.8603 26.7364C27.2429 26.3205 26.796 25.9821 26.5236 25.7214C26.2513 25.4607 25.8979 25.0349 25.4634 24.4438C25.4302 24.398 25.3657 24.3881 25.3179 24.4199C25.3075 24.4259 25.2992 24.4338 25.293 24.4438Z" fill="#E066FF"/>
<path fill-rule="evenodd" clip-rule="evenodd" d="M32.6466 12.5076C28.8415 10.5758 24.1986 10.2 21.0024 10.2L21.0024 7.80005C24.3059 7.80005 29.413 8.17433 33.7331 10.3676C35.9116 11.4736 37.9185 13.0565 39.377 15.3088C40.8388 17.5664 41.7026 20.4243 41.7026 24.0002C41.7026 27.576 40.8388 30.434 39.377 32.6915C37.9185 34.9438 35.9116 36.5268 33.7331 37.6328C29.413 39.826 24.3059 40.2003 21.0024 40.2003L21.0024 37.8003C24.1986 37.8003 28.8415 37.4246 32.6466 35.4928C34.5307 34.5362 36.1801 33.2129 37.3624 31.3871C38.5413 29.5665 39.3026 27.1744 39.3026 24.0002C39.3026 20.8259 38.5413 18.4339 37.3624 16.6133C36.1801 14.7874 34.5307 13.4641 32.6466 12.5076Z" fill="#E066FF"/>
</svg>
