<svg width="48" height="48" viewBox="0 0 48 48" fill="none" xmlns="http://www.w3.org/2000/svg">
<g clip-path="url(#clip0_2662_7653)">
<path fill-rule="evenodd" clip-rule="evenodd" d="M39.9089 8.09762C39.239 7.41936 38.3495 7.1574 37.4544 7.13097C36.5679 7.1048 35.5869 7.30332 34.572 7.64001C32.5384 8.3146 30.1094 9.63245 27.5303 11.3724C26.9809 11.7431 26.836 12.4889 27.2066 13.0383C27.5773 13.5877 28.3231 13.7326 28.8725 13.362C31.3692 11.6776 33.5909 10.4941 35.3276 9.91794C36.1978 9.62927 36.882 9.51512 37.3836 9.52993C37.8751 9.54444 38.0952 9.67629 38.202 9.78483L38.202 9.78485L38.2086 9.79143C38.3866 9.9694 38.6065 10.4466 38.3805 11.597C38.1633 12.7029 37.5802 14.1461 36.6261 15.8483C34.7262 19.2375 31.4982 23.4025 27.4208 27.5279C23.3496 31.647 19.1888 34.8714 15.7918 36.7573C14.086 37.7043 12.6346 38.279 11.5215 38.4898C10.3625 38.7094 9.87533 38.4869 9.69422 38.3058C9.56715 38.1787 9.41446 37.906 9.4199 37.3047C9.42538 36.6997 9.59429 35.8857 9.9729 34.8718C10.7278 32.8503 12.2213 30.2828 14.3452 27.4669C14.7442 26.9378 14.6388 26.1854 14.1097 25.7863C13.5806 25.3872 12.8282 25.4926 12.4291 26.0217C10.23 28.9373 8.59074 31.7126 7.72455 34.0322C7.29262 35.1889 7.02895 36.2949 7.02 37.283C7.01102 38.2746 7.26208 39.2678 7.99716 40.0029C9.03034 41.036 10.5467 41.1172 11.9681 40.8479C13.4354 40.57 15.1411 39.8636 16.9567 38.8556C20.6026 36.8315 24.9418 33.4502 29.1277 29.215C33.3074 24.9862 36.6851 20.6512 38.7196 17.0218C39.7326 15.2147 40.4488 13.5189 40.7355 12.0597C41.0131 10.6464 40.9421 9.13385 39.9089 8.09762Z" fill="#E066FF"/>
<path fill-rule="evenodd" clip-rule="evenodd" d="M31.7799 15.2458C29.6726 13.6654 27.066 12.898 24.4385 13.0848C21.811 13.2715 19.339 14.3997 17.4764 16.2623C15.6138 18.1249 14.4856 20.5969 14.2989 23.2244C14.1122 25.8519 14.8795 28.4585 16.4599 30.5658C16.8576 31.096 16.7501 31.8482 16.2199 32.2458C15.6897 32.6435 14.9376 32.536 14.5399 32.0058C12.6128 29.4364 11.6772 26.258 11.9049 23.0542C12.1326 19.8505 13.5083 16.8364 15.7794 14.5653C18.0505 12.2942 21.0646 10.9185 24.2684 10.6908C27.4721 10.4631 30.6505 11.3987 33.2199 13.3258C33.7501 13.7235 33.8576 14.4756 33.4599 15.0058C33.0623 15.536 32.3101 15.6435 31.7799 15.2458ZM35.765 17.8574C36.3677 17.5817 37.0797 17.8468 37.3554 18.4495C38.2856 20.4828 38.6899 22.7173 38.5311 24.9477C38.3723 27.178 37.6555 29.3327 36.4467 31.2138C35.2378 33.0948 33.5756 34.6419 31.6128 35.7129C29.6501 36.7838 27.4499 37.3443 25.2141 37.343C23.4298 37.3436 21.6632 36.9902 20.0165 36.3033C19.4049 36.0482 19.1158 35.3455 19.371 34.7338C19.6261 34.1222 20.3288 33.8332 20.9405 34.0883C22.2943 34.653 23.7468 34.9435 25.2137 34.943L25.215 34.943C27.0488 34.9441 28.8535 34.4844 30.4632 33.6061C32.073 32.7277 33.4362 31.4589 34.4277 29.9162C35.4191 28.3735 36.0069 26.6064 36.1372 24.7772C36.2674 22.9481 35.9358 21.1155 35.173 19.4479C34.8973 18.8452 35.1623 18.1331 35.765 17.8574ZM25.2141 37.343C25.2139 37.343 25.2137 37.343 25.2134 37.343L25.2142 36.143L25.2147 37.343C25.2145 37.343 25.2143 37.343 25.2141 37.343Z" fill="#E066FF"/>
</g>
<defs>
<clipPath id="clip0_2662_7653">
<rect width="34" height="34" fill="white" transform="translate(7 7)"/>
</clipPath>
</defs>
</svg>
