<svg width="48" height="48" viewBox="0 0 48 48" fill="none" xmlns="http://www.w3.org/2000/svg">
<path d="M35.4635 19.1952C35.1994 18.4047 34.698 17.7183 34.0299 17.2326C33.3617 16.7468 32.5605 16.4862 31.739 16.4874L28.5842 16.4874L28.5842 7L27.2584 7.19247C24.2508 7.62904 21.9081 9.17776 20.2959 11.7957C19.1336 13.6828 18.5933 15.7645 18.3425 17.3215C16.6113 18.6751 15.1052 20.5387 13.8606 22.869C12.8116 24.8326 11.9433 27.1341 11.2796 29.7096C10.1583 34.0613 10.0065 37.671 10.0006 37.8225L9.99999 42L12.3227 42L12.3227 37.8957C12.3517 37.2885 13.0832 24.0012 20.0928 18.9416L20.5037 18.645L20.5712 18.1373C20.9208 15.5092 22.1288 11.1684 26.2611 9.83417L26.2611 18.848L31.739 18.848C32.0749 18.847 32.4026 18.9531 32.6761 19.1512C32.9496 19.3494 33.155 19.6297 33.2635 19.9527C34.1896 22.7306 35.7809 26.2067 38.261 27.8402L37.5151 30.6824C37.2555 31.696 36.665 32.5901 35.8402 33.2182C35.0154 33.8463 34.0052 34.1713 32.9749 34.14C30.8938 34.0766 28.7276 34.3525 26.5365 34.9597L25.6804 35.1969L25.6804 42L28.0034 42L28.0034 37.0182C29.6087 36.6328 31.2561 36.4585 32.9051 36.4996C34.4581 36.5431 35.9799 36.0523 37.224 35.1068C38.4682 34.1614 39.3616 32.8167 39.7595 31.2907L41 26.5634L40.0761 26.1611C38.3484 25.4086 36.7103 22.9348 35.4635 19.1952Z" fill="#E066FF"/>
</svg>
