<svg width="32" height="32" viewBox="0 0 32 32" fill="none" xmlns="http://www.w3.org/2000/svg">
<path fill-rule="evenodd" clip-rule="evenodd" d="M29 15.5C29 22.9558 22.9558 29 15.5 29C8.04416 29 2 22.9558 2 15.5C2 8.04416 8.04416 2 15.5 2C22.9558 2 29 8.04416 29 15.5ZM15.9836 11.9673C14.6589 12.514 12.0304 13.6285 8.09813 15.3528C7.46729 15.6051 7.13084 15.8575 7.08879 16.0888C7.03315 16.4968 7.54998 16.6594 8.2498 16.8797C8.34347 16.9092 8.44042 16.9397 8.53972 16.972C9.23365 17.2033 10.1589 17.4766 10.6425 17.4766C11.0841 17.4766 11.5678 17.3084 12.1145 16.9299C15.7944 14.4486 17.6869 13.1869 17.8131 13.1659C17.8972 13.1449 18.0023 13.1238 18.0864 13.1869C18.1589 13.2412 18.1534 13.3423 18.1504 13.3962C18.1499 13.4049 18.1495 13.4124 18.1495 13.4182C18.1039 13.6312 16.2755 15.3298 15.1959 16.3327C14.7832 16.7162 14.4799 16.9979 14.4276 17.0561C14.324 17.1625 14.2184 17.2635 14.1167 17.3607C13.4755 17.974 12.9897 18.4386 14.1332 19.2009C14.7487 19.6038 15.2272 19.9293 15.7178 20.2629C16.1489 20.5561 16.5893 20.8557 17.1402 21.2196C17.3012 21.3225 17.4555 21.4301 17.6062 21.5352C18.1642 21.9242 18.6725 22.2786 19.285 22.229C19.6425 22.1869 20.021 21.8505 20.2103 20.8411C20.6729 18.465 21.535 13.271 21.7453 11.1472C21.7664 10.9579 21.7453 10.7266 21.7243 10.6215C21.7033 10.5164 21.6612 10.3692 21.535 10.264C21.3668 10.1379 21.1145 10.1168 21.0093 10.1168C20.5047 10.1379 19.7266 10.4112 15.9836 11.9673Z" fill="white"/>
</svg>
