<svg width="48" height="48" viewBox="0 0 48 48" fill="none" xmlns="http://www.w3.org/2000/svg">
<path fill-rule="evenodd" clip-rule="evenodd" d="M33.5782 29.2793C33.5782 31.6536 31.6534 33.5784 29.279 33.5784H19.8183L19.8183 37.4202C19.8183 38.1548 20.4138 38.7503 21.1484 38.7503H37.42C38.1546 38.7503 38.75 38.1548 38.75 37.4202V21.1486C38.75 20.414 38.1546 19.8186 37.42 19.8186L33.5782 19.8186V29.2793ZM33.5782 17.3186V10.0491C33.5782 7.67479 31.6534 5.75 29.279 5.75L10.0489 5.75C7.67454 5.75 5.74976 7.67479 5.74976 10.0491V29.2793C5.74976 31.6536 7.67454 33.5784 10.0489 33.5784H17.3183L17.3183 37.4202C17.3183 39.5355 19.0331 41.2503 21.1484 41.2503H37.42C39.5353 41.2503 41.25 39.5355 41.25 37.4202V21.1486C41.25 19.0333 39.5353 17.3186 37.42 17.3186L33.5782 17.3186ZM29.279 31.0784C30.2727 31.0784 31.0782 30.2729 31.0782 29.2793L31.0782 10.0491C31.0782 9.0555 30.2727 8.25 29.279 8.25L10.0489 8.25C9.05526 8.25 8.24976 9.0555 8.24976 10.0491L8.24976 29.2793C8.24976 30.2729 9.05526 31.0784 10.0489 31.0784L29.279 31.0784ZM22.8658 24.6136L22.8758 24.6235L22.8857 24.6136H23.3594H24.6094V23.3636V22.8885L24.6428 22.855L24.6094 22.8217V16.412V15.162H22.1094V16.412V20.3237L17.3119 15.5301L16.4277 14.6466L14.6607 16.4151L15.5449 17.2986L20.3638 22.1136H16.4022H15.1522V24.6136H16.4022H22.8658Z" fill="#E066FF"/>
</svg>
