<svg width="20" height="20" viewBox="0 0 20 20" fill="none" xmlns="http://www.w3.org/2000/svg">
<path fill-rule="evenodd" clip-rule="evenodd" d="M8.83434 4.88829C7.69508 3.7039 5.84786 3.7039 4.70861 4.88829L1.85456 7.85538C0.715308 9.03977 0.715308 10.9602 1.85456 12.1445L4.70861 15.1116C5.84786 16.296 7.69508 16.296 8.83434 15.1116L9.02288 14.9156L6.25101 12.034C5.3326 11.0792 5.3326 9.51682 6.25101 8.56203C7.16942 7.60733 8.67225 7.60733 9.59057 8.56203L9.59454 8.56478L11.349 10.3887C11.7307 10.7856 12.3553 10.7856 12.737 10.3887C13.1186 9.99191 13.1186 9.34261 12.737 8.94579L11.7136 7.8819C11.7051 7.87296 11.6971 7.86442 11.6884 7.85538L8.83434 4.88829Z" fill="white"/>
<path fill-rule="evenodd" clip-rule="evenodd" d="M11.1659 4.88829L10.9758 5.08596L13.7143 7.93286C14.6327 8.88766 14.6327 10.45 13.7143 11.4048C12.7959 12.3595 11.2931 12.3595 10.3748 11.4048L10.3715 11.4026L8.61464 9.57633C8.23293 9.17951 7.60838 9.17951 7.22667 9.57633C6.84506 9.97306 6.84497 10.6224 7.22667 11.0192L10.5142 14.4369C10.5232 14.4463 10.533 14.4544 10.5422 14.4633L11.1659 15.1116C12.3052 16.2961 14.1523 16.2961 15.2917 15.1116L18.1457 12.1445C19.285 10.9602 19.285 9.03987 18.1457 7.85538L15.2917 4.88829C14.1523 3.7039 12.3052 3.7039 11.1659 4.88829Z" fill="white"/>
</svg>
